<?xml version="1.0" encoding="UTF-8"?>
<svg width="24" height="24" viewBox="0 0 24 24" fill="none" xmlns="http://www.w3.org/2000/svg">
    <path d="M18.67 13.52c-.02-2.02 1.66-3 1.74-3.06-1.34-1.94-3.43-2.2-4.15-2.22-1.76-.18-3.44 1.06-4.32 1.06-.88 0-2.27-1.04-3.74-1.01-1.92.03-3.73 1.11-4.72 2.81-2.02 3.5-.52 8.66 1.42 11.5.94 1.35 2.05 2.86 3.5 2.8 1.41-.06 1.93-.9 3.62-.9 1.68 0 2.15.9 3.63.87 1.5-.03 2.45-1.37 3.36-2.74 1.1-1.65 1.55-3.26 1.58-3.34-.03-.02-3.04-1.17-3.07-4.62zM15.79 3.81c.79-.97 1.33-2.32 1.18-3.68-1.14.05-2.53.77-3.34 1.74-.73.86-1.38 2.25-1.21 3.57 1.28.1 2.58-.64 3.37-1.63z" fill="white" fill-opacity="0.9"/>
</svg>
