<svg xmlns="http://www.w3.org/2000/svg" xmlns:xlink="http://www.w3.org/1999/xlink" width="1080" zoomAndPan="magnify" viewBox="0 0 810 809.999993" height="1080" preserveAspectRatio="xMidYMid meet" version="1.0"><defs><clipPath id="c6520b647c"><path d="M 0 136.179688 L 810 136.179688 L 810 673.929688 L 0 673.929688 Z M 0 136.179688 " clip-rule="nonzero"/></clipPath></defs><rect x="-81" width="972" fill="#ffffff" y="-80.999999" height="971.999992" fill-opacity="1"/><rect x="-81" width="972" fill="#ffffff" y="-80.999999" height="971.999992" fill-opacity="1"/><g clip-path="url(#c6520b647c)"><path fill="#002ca3" d="M 87.804688 490.285156 C 87.804688 358.632812 153.425781 224.074219 231.695312 224.074219 C 274.042969 224.074219 309.457031 248.546875 363.714844 326.171875 C 312.226562 405.132812 281.015625 454.683594 281.015625 454.683594 C 212.441406 562.234375 188.65625 586.335938 150.515625 586.335938 C 111.21875 586.335938 87.851562 551.84375 87.851562 490.285156 M 539.929688 441.15625 L 492.554688 362.054688 C 479.71875 341.179688 467.402344 321.972656 455.609375 304.421875 C 498.367188 238.4375 533.652344 205.558594 575.671875 205.558594 C 662.808594 205.558594 732.675781 333.839844 732.675781 491.441406 C 732.675781 551.472656 713 586.378906 672.226562 586.378906 C 633.164062 586.378906 614.507812 560.570312 540.300781 441.199219 M 416.21875 249.652344 C 351.570312 167.503906 297.773438 136.195312 233.175781 136.195312 C 101.523438 136.195312 0.667969 307.515625 0.667969 488.808594 C 0.667969 602.269531 55.578125 673.84375 147.511719 673.84375 C 213.683594 673.84375 261.296875 642.625 346.078125 494.761719 L 404.816406 389.527344 C 423.984375 420.496094 436.058594 441.414062 471.355469 500.628906 C 548.65625 629.921875 591.695312 673.792969 669.921875 673.792969 C 759.507812 673.792969 809.328125 601.25 809.328125 485.4375 C 809.328125 295.601562 706.214844 136.152344 580.9375 136.152344 C 514.578125 136.152344 462.722656 186.117188 415.804688 249.605469 " fill-opacity="1" fill-rule="nonzero"/></g></svg>